<svg width="100" height="100" viewBox="0 0 100 100" fill="none" xmlns="http://www.w3.org/2000/svg">
  <!-- Book -->
  <rect x="25" y="20" width="50" height="60" fill="#059669" stroke="#047857" stroke-width="2" rx="3"/>
  
  <!-- Pages -->
  <rect x="27" y="22" width="46" height="56" fill="#FEF3C7" stroke="#047857" stroke-width="1"/>
  
  <!-- Text lines -->
  <rect x="32" y="30" width="36" height="2" fill="#059669" rx="1"/>
  <rect x="32" y="35" width="30" height="2" fill="#059669" rx="1"/>
  <rect x="32" y="40" width="34" height="2" fill="#059669" rx="1"/>
  <rect x="32" y="45" width="28" height="2" fill="#059669" rx="1"/>
  <rect x="32" y="50" width="32" height="2" fill="#059669" rx="1"/>
  <rect x="32" y="55" width="26" height="2" fill="#059669" rx="1"/>
  <rect x="32" y="60" width="30" height="2" fill="#059669" rx="1"/>
  <rect x="32" y="65" width="24" height="2" fill="#059669" rx="1"/>
  
  <!-- Decorative border -->
  <rect x="30" y="25" width="40" height="50" fill="none" stroke="#059669" stroke-width="1" stroke-dasharray="2,2"/>
  
  <!-- Corner decoration -->
  <circle cx="35" cy="30" r="2" fill="#059669"/>
  <circle cx="65" cy="30" r="2" fill="#059669"/>
  <circle cx="35" cy="70" r="2" fill="#059669"/>
  <circle cx="65" cy="70" r="2" fill="#059669"/>
</svg>

